<mxfile host="app.diagrams.net" agent="Mozilla/5.0 (Windows NT 10.0; Win64; x64) AppleWebKit/537.36 (KHTML, like Gecko) Chrome/131.0.0.0 Safari/537.36 Edg/131.0.0.0" version="25.0.3">
  <diagram name="Page-1" id="l-LV1eNT2-p2VJEIhvb9">
    <mxGraphModel dx="996" dy="533" grid="1" gridSize="10" guides="1" tooltips="1" connect="1" arrows="1" fold="1" page="1" pageScale="1" pageWidth="850" pageHeight="1100" math="0" shadow="0">
      <root>
        <mxCell id="0" />
        <mxCell id="1" parent="0" />
        <mxCell id="yB6ABjICX02xEgHFaDFq-6" value="" style="edgeStyle=orthogonalEdgeStyle;rounded=0;orthogonalLoop=1;jettySize=auto;html=1;" edge="1" parent="1" source="yB6ABjICX02xEgHFaDFq-4" target="yB6ABjICX02xEgHFaDFq-5">
          <mxGeometry relative="1" as="geometry" />
        </mxCell>
        <mxCell id="yB6ABjICX02xEgHFaDFq-10" value="" style="edgeStyle=orthogonalEdgeStyle;rounded=0;orthogonalLoop=1;jettySize=auto;html=1;" edge="1" parent="1" source="yB6ABjICX02xEgHFaDFq-4" target="yB6ABjICX02xEgHFaDFq-9">
          <mxGeometry relative="1" as="geometry" />
        </mxCell>
        <mxCell id="yB6ABjICX02xEgHFaDFq-4" value="" style="rounded=1;whiteSpace=wrap;html=1;" vertex="1" parent="1">
          <mxGeometry x="55" y="20" width="180" height="220" as="geometry" />
        </mxCell>
        <mxCell id="yB6ABjICX02xEgHFaDFq-1" value="Query" style="rounded=0;whiteSpace=wrap;html=1;" vertex="1" parent="1">
          <mxGeometry x="90" y="70" width="110" height="50" as="geometry" />
        </mxCell>
        <mxCell id="yB6ABjICX02xEgHFaDFq-3" value="PDF" style="rounded=0;whiteSpace=wrap;html=1;" vertex="1" parent="1">
          <mxGeometry x="90" y="140" width="110" height="50" as="geometry" />
        </mxCell>
        <mxCell id="yB6ABjICX02xEgHFaDFq-8" value="" style="edgeStyle=orthogonalEdgeStyle;rounded=0;orthogonalLoop=1;jettySize=auto;html=1;" edge="1" parent="1" source="yB6ABjICX02xEgHFaDFq-5" target="yB6ABjICX02xEgHFaDFq-7">
          <mxGeometry relative="1" as="geometry" />
        </mxCell>
        <mxCell id="yB6ABjICX02xEgHFaDFq-5" value="Embedding Model&lt;div&gt;(ViT-B/32)&lt;/div&gt;" style="rounded=0;whiteSpace=wrap;html=1;" vertex="1" parent="1">
          <mxGeometry x="90" y="370" width="110" height="50" as="geometry" />
        </mxCell>
        <mxCell id="yB6ABjICX02xEgHFaDFq-13" style="edgeStyle=orthogonalEdgeStyle;rounded=0;orthogonalLoop=1;jettySize=auto;html=1;exitX=0.5;exitY=0;exitDx=0;exitDy=0;entryX=0.5;entryY=1;entryDx=0;entryDy=0;" edge="1" parent="1" source="yB6ABjICX02xEgHFaDFq-7" target="yB6ABjICX02xEgHFaDFq-11">
          <mxGeometry relative="1" as="geometry" />
        </mxCell>
        <mxCell id="yB6ABjICX02xEgHFaDFq-7" value="FAISS vector database" style="rounded=0;whiteSpace=wrap;html=1;" vertex="1" parent="1">
          <mxGeometry x="410" y="370" width="110" height="50" as="geometry" />
        </mxCell>
        <mxCell id="yB6ABjICX02xEgHFaDFq-12" value="" style="edgeStyle=orthogonalEdgeStyle;rounded=0;orthogonalLoop=1;jettySize=auto;html=1;" edge="1" parent="1" source="yB6ABjICX02xEgHFaDFq-9" target="yB6ABjICX02xEgHFaDFq-11">
          <mxGeometry relative="1" as="geometry" />
        </mxCell>
        <mxCell id="yB6ABjICX02xEgHFaDFq-9" value="Query" style="rounded=0;whiteSpace=wrap;html=1;" vertex="1" parent="1">
          <mxGeometry x="280" y="110" width="90" height="40" as="geometry" />
        </mxCell>
        <mxCell id="yB6ABjICX02xEgHFaDFq-15" value="" style="edgeStyle=orthogonalEdgeStyle;rounded=0;orthogonalLoop=1;jettySize=auto;html=1;" edge="1" parent="1" source="yB6ABjICX02xEgHFaDFq-11" target="yB6ABjICX02xEgHFaDFq-14">
          <mxGeometry relative="1" as="geometry" />
        </mxCell>
        <mxCell id="yB6ABjICX02xEgHFaDFq-11" value="Retriever" style="rounded=0;whiteSpace=wrap;html=1;" vertex="1" parent="1">
          <mxGeometry x="420" y="110" width="90" height="40" as="geometry" />
        </mxCell>
        <mxCell id="yB6ABjICX02xEgHFaDFq-18" value="" style="edgeStyle=orthogonalEdgeStyle;rounded=0;orthogonalLoop=1;jettySize=auto;html=1;" edge="1" parent="1" source="yB6ABjICX02xEgHFaDFq-14" target="yB6ABjICX02xEgHFaDFq-17">
          <mxGeometry relative="1" as="geometry" />
        </mxCell>
        <mxCell id="yB6ABjICX02xEgHFaDFq-14" value="Relevant Docs" style="rounded=0;whiteSpace=wrap;html=1;" vertex="1" parent="1">
          <mxGeometry x="570" y="110" width="90" height="40" as="geometry" />
        </mxCell>
        <mxCell id="yB6ABjICX02xEgHFaDFq-19" style="edgeStyle=orthogonalEdgeStyle;rounded=0;orthogonalLoop=1;jettySize=auto;html=1;exitX=1;exitY=0.5;exitDx=0;exitDy=0;entryX=0;entryY=0.5;entryDx=0;entryDy=0;" edge="1" parent="1" source="yB6ABjICX02xEgHFaDFq-16" target="yB6ABjICX02xEgHFaDFq-17">
          <mxGeometry relative="1" as="geometry" />
        </mxCell>
        <mxCell id="yB6ABjICX02xEgHFaDFq-16" value="LLM" style="rounded=0;whiteSpace=wrap;html=1;" vertex="1" parent="1">
          <mxGeometry x="570" y="180" width="90" height="40" as="geometry" />
        </mxCell>
        <mxCell id="yB6ABjICX02xEgHFaDFq-17" value="Response" style="rounded=0;whiteSpace=wrap;html=1;" vertex="1" parent="1">
          <mxGeometry x="720" y="110" width="90" height="40" as="geometry" />
        </mxCell>
      </root>
    </mxGraphModel>
  </diagram>
</mxfile>
